<svg width="98" height="37" viewBox="0 0 98 37" fill="none" xmlns="http://www.w3.org/2000/svg">
<g clip-path="url(#clip0_1320_3487)">
<path d="M4.32867 17.8829C4.29359 17.837 4.24727 17.8009 4.19418 17.7782C4.14108 17.7554 4.08301 17.7467 4.02558 17.7529C3.96815 17.7592 3.91331 17.7801 3.86634 17.8138C3.81937 17.8474 3.78188 17.8926 3.75748 17.9449L0.86316 23.7318C0.836793 23.7845 0.824344 23.8431 0.826995 23.902C0.829645 23.9609 0.847308 24.0181 0.878305 24.0684C0.909303 24.1185 0.952606 24.1599 1.0041 24.1886C1.0556 24.2173 1.11358 24.2324 1.17255 24.2324H5.20273C5.26728 24.2339 5.33088 24.2166 5.3858 24.1827C5.44072 24.1487 5.4846 24.0996 5.51212 24.0412C6.38149 22.2447 5.85462 19.5132 4.32867 17.8829Z" fill="#828282"/>
<path d="M6.45355 12.6195C5.73237 13.7291 5.31209 15.0073 5.23397 16.3284C5.15585 17.6495 5.42255 18.9682 6.00792 20.1552L7.95092 24.0411C7.97964 24.0986 8.0238 24.1469 8.07843 24.1807C8.13312 24.2145 8.19609 24.2324 8.26029 24.2324H12.2898C12.3487 24.2324 12.4067 24.2173 12.4582 24.1886C12.5097 24.1599 12.553 24.1185 12.584 24.0683C12.615 24.0181 12.6327 23.9609 12.6353 23.902C12.638 23.8431 12.6255 23.7845 12.5992 23.7318C12.5992 23.7318 7.1782 12.8885 7.04195 12.6173C7.01497 12.5621 6.97305 12.5156 6.92088 12.4832C6.86871 12.4507 6.80849 12.4336 6.74708 12.4338C6.68562 12.4341 6.62551 12.4516 6.57362 12.4844C6.52167 12.5173 6.48008 12.5641 6.45355 12.6195Z" fill="#828282"/>
<path d="M53.7164 17.2601C53.7164 18.6931 54.3812 19.8308 56.9811 20.333C58.5328 20.6587 58.8574 20.9091 58.8574 21.4262C58.8574 21.9285 58.5316 22.2536 57.439 22.2536C56.1186 22.2298 54.8244 21.8796 53.6721 21.2343V23.5682C54.4552 23.9523 55.4891 24.3807 57.4099 24.3807C60.128 24.3807 61.2067 23.1686 61.2067 21.367L53.7164 17.2601ZM61.2067 21.367C61.2067 19.6681 60.3055 18.8702 57.7642 18.3238C56.3609 18.0135 56.0211 17.7034 56.0211 17.2601C56.0211 16.6993 56.5233 16.4624 57.4541 16.4624C58.577 16.4624 59.6847 16.8022 60.7337 17.275V15.0441C59.7278 14.5863 58.6329 14.3593 57.528 14.3794C55.0164 14.3794 53.7164 15.4725 53.7164 17.2601" fill="#828282"/>
<path d="M88.6393 14.5261V24.2322H90.7076V16.8308L91.5791 18.7955L94.5043 24.2322H97.1044V14.5261H95.0361V20.7901L94.2536 18.9728L91.9043 14.5261H88.6393Z" fill="#828282"/>
<path d="M75.4842 14.5261H73.224V24.2322H75.4842V14.5261Z" fill="#828282"/>
<path d="M70.6156 21.367C70.6156 19.6681 69.7144 18.8702 67.1737 18.3238C65.7704 18.0135 65.4307 17.7034 65.4307 17.2601C65.4307 16.6993 65.9327 16.4624 66.8636 16.4624C67.9864 16.4624 69.0942 16.8022 70.1431 17.275V15.0441C69.1373 14.5863 68.0419 14.3593 66.9369 14.3794C64.4259 14.3794 63.1256 15.4725 63.1256 17.2601C63.1256 18.6931 63.7906 19.8308 66.3906 20.333C67.9417 20.6587 68.2669 20.9091 68.2669 21.4262C68.2669 21.9285 67.9411 22.2536 66.8485 22.2536C65.528 22.2298 64.2339 21.8796 63.0814 21.2343V23.5682C63.8645 23.9523 64.8983 24.3807 66.8188 24.3807C69.5375 24.3807 70.6156 23.1686 70.6156 21.367Z" fill="#828282"/>
<path d="M36.1577 14.5261V24.2322H40.8036L41.5351 22.1343H38.4328V14.5261H36.1577Z" fill="#828282"/>
<path d="M26.9779 14.5261V16.6238H29.4894V24.2322H31.7643V16.6238H34.4531V14.5261H26.9779Z" fill="#828282"/>
<path d="M23.6773 14.5261H20.6957L17.3111 24.2322H19.8959L20.3757 22.5975C21.5574 22.9445 22.814 22.9445 23.9957 22.5975L24.4755 24.2322H27.0608L23.6773 14.5261ZM22.1864 20.8472C21.7654 20.8472 21.3465 20.7869 20.9425 20.6683L22.1864 16.4326L23.4303 20.6697C23.0263 20.7879 22.6074 20.8476 22.1864 20.8472Z" fill="#828282"/>
<path d="M48.8152 14.5261H45.8339L42.4492 24.2322H45.0345L45.5143 22.5975C46.6961 22.9445 47.9526 22.9445 49.1344 22.5975L49.6142 24.2322H52.1995L48.8152 14.5261ZM47.3245 20.8472C46.9035 20.8472 46.4846 20.7869 46.0807 20.6683L47.3245 16.4326L48.5684 20.6697C48.1644 20.7879 47.7455 20.8476 47.3245 20.8472Z" fill="#828282"/>
<path d="M83.6313 14.5261H80.6501L77.2653 24.2322H79.8508L80.3305 22.5975C81.5127 22.9445 82.7687 22.9445 83.9509 22.5975L84.4306 24.2322H87.0161L83.6313 14.5261ZM82.1401 20.8472C81.7187 20.8472 81.3 20.7869 80.8958 20.6683L82.1401 16.4326L83.3839 20.6697C82.9798 20.7879 82.5611 20.8476 82.1401 20.8472Z" fill="#828282"/>
</g>
<defs>
<clipPath id="clip0_1320_3487">
<rect width="96.8357" height="35.8236" fill="white" transform="translate(0.814758 0.494629)"/>
</clipPath>
</defs>
</svg>
