<svg width="96" height="37" viewBox="0 0 96 37" fill="none" xmlns="http://www.w3.org/2000/svg">
<g clip-path="url(#clip0_1320_3501)">
<mask id="mask0_1320_3501" style="mask-type:luminance" maskUnits="userSpaceOnUse" x="0" y="9" width="96" height="22">
<path d="M95.2891 9.86914H0.502487V30.8095H95.2891V9.86914Z" fill="white"/>
</mask>
<g mask="url(#mask0_1320_3501)">
<path d="M30.5522 21.3379C30.469 21.2131 30.3443 21.1299 30.1917 21.116C30.0391 21.1022 29.8866 21.1576 29.7757 21.2686C28.791 22.0729 27.5707 22.5305 26.2948 22.5305C23.549 22.5305 21.5521 20.4088 21.5521 17.4827C21.5521 14.5566 23.4797 12.6289 26.2393 12.6289C27.4043 12.6289 28.5414 12.9895 29.4844 13.6552C29.6925 13.8493 30.0252 13.8216 30.2194 13.6136C30.2333 13.5997 30.2472 13.572 30.261 13.5581L30.4136 13.3362C30.6077 13.1004 30.5661 12.7538 30.3165 12.5596C29.1377 11.6721 27.6816 11.2144 26.2116 11.256C22.6476 11.256 20.0543 13.8909 20.0543 17.5104C20.0543 21.227 22.6615 23.9173 26.2671 23.9173C27.8758 23.9173 29.4289 23.3488 30.6632 22.3087C30.8851 22.1145 30.9267 21.7817 30.7325 21.5598C30.7187 21.546 30.7187 21.546 30.7048 21.5321L30.5522 21.3379Z" fill="#828282"/>
<path d="M34.2546 22.447C33.9496 22.4054 33.4919 22.3361 33.4919 21.3376V12.0184C33.5197 11.7272 33.2978 11.4776 33.0065 11.4499C32.9788 11.4499 32.9511 11.4499 32.9233 11.4499H32.6044C32.327 11.4221 32.0774 11.644 32.0497 11.9214C32.0497 11.9491 32.0497 11.9907 32.0497 12.0184V21.5456C32.0497 23.4871 33.3671 23.7783 34.1437 23.7783C34.4349 23.8199 34.6846 23.6119 34.7262 23.3207C34.7262 23.2791 34.7262 23.2514 34.7262 23.2097V22.9601C34.7539 22.6967 34.5459 22.4747 34.2962 22.447C34.2824 22.447 34.2685 22.447 34.2546 22.447Z" fill="#828282"/>
<path d="M36.5891 14.862H36.2701C35.9789 14.8342 35.7293 15.0562 35.7015 15.3473C35.7015 15.3751 35.7015 15.4028 35.7015 15.4305V23.1411C35.6738 23.4323 35.8957 23.6819 36.1869 23.7097C36.2146 23.7097 36.2424 23.7097 36.2701 23.7097H36.5891C36.8664 23.7374 37.1161 23.5155 37.1438 23.2381C37.1438 23.2104 37.1438 23.1688 37.1438 23.1411V15.4305C37.1716 15.1532 36.9774 14.8897 36.7 14.862C36.6584 14.862 36.6307 14.862 36.5891 14.862Z" fill="#828282"/>
<path d="M36.6417 11.4502H36.2118C35.9344 11.4224 35.6848 11.6443 35.657 11.9217C35.657 11.9494 35.657 11.991 35.657 12.0188V12.6289C35.6293 12.9063 35.8235 13.1559 36.087 13.1836C36.1286 13.1836 36.1702 13.1836 36.1979 13.1836H36.6278C36.9051 13.2114 37.1409 13.0172 37.1825 12.7399C37.1825 12.6983 37.1825 12.6705 37.1825 12.6289V12.0049C37.2103 11.7275 37.0022 11.4779 36.7249 11.4363C36.711 11.4502 36.6694 11.4502 36.6417 11.4502Z" fill="#828282"/>
<path d="M46.3053 21.8647C46.236 21.7261 46.0974 21.629 45.9587 21.6013C45.8061 21.5735 45.6536 21.6151 45.5288 21.7261C44.877 22.2808 44.0588 22.5998 43.199 22.5998C41.4516 22.6414 40.0094 21.2546 39.9678 19.5211C39.9678 19.4379 39.9678 19.3685 39.9678 19.2853C39.8846 17.538 41.2159 16.0541 42.9632 15.9709C43.0326 15.9709 43.1019 15.9709 43.1712 15.9709C43.934 15.9848 44.669 16.2483 45.2653 16.7337C45.3901 16.8168 45.5288 16.8723 45.6813 16.8585C45.8339 16.8446 45.9726 16.7475 46.0419 16.6089L46.1528 16.4286C46.2637 16.3038 46.3053 16.1512 46.2915 15.9987C46.2637 15.86 46.1944 15.7352 46.0835 15.652C45.2514 15.0002 44.2252 14.6535 43.1574 14.6674C40.675 14.5842 38.6088 16.5257 38.5117 18.9941C38.5117 19.0912 38.5117 19.2021 38.5117 19.2992C38.4285 21.7677 40.37 23.8479 42.8384 23.9311C42.9494 23.9311 43.0464 23.9311 43.1574 23.9311C44.3084 23.9311 45.4178 23.5427 46.3053 22.8078C46.555 22.6275 46.5966 22.2946 46.4302 22.0451L46.3053 21.8647Z" fill="#828282"/>
<path d="M51.3846 18.7582L53.9224 15.5963C54.0611 15.4715 54.1027 15.2635 54.0334 15.0971C53.9363 14.9307 53.756 14.8336 53.5618 14.8614H53.1319C52.8823 14.8614 52.6605 14.9723 52.5079 15.1664L50.1781 18.1341H48.9994V12.0184C49.0271 11.7272 48.8052 11.4776 48.514 11.4499C48.4862 11.4499 48.4585 11.4499 48.4308 11.4499H48.1118C47.8344 11.4221 47.5848 11.644 47.5571 11.9214C47.5571 11.9491 47.5571 11.9907 47.5571 12.0184V23.1404C47.5293 23.4178 47.7374 23.6674 48.0147 23.709C48.0424 23.709 48.084 23.709 48.1118 23.709H48.4308C48.722 23.7367 48.9716 23.5287 49.0132 23.2375C49.0132 23.2097 49.0132 23.1681 49.0132 23.1404V19.4377H50.192L52.8268 23.3623C52.9378 23.5981 53.1874 23.7367 53.437 23.7228H53.8808C54.0749 23.7506 54.2552 23.6674 54.3523 23.501C54.4355 23.3346 54.4078 23.1404 54.2829 22.9879L51.3846 18.7582Z" fill="#828282"/>
<path d="M63.5311 12.2403V12.0184C63.5592 11.7272 63.3372 11.4776 63.0462 11.4499C63.0181 11.4499 62.9906 11.4499 62.963 11.4499H54.0458C53.7546 11.4221 53.5049 11.644 53.4772 11.9352C53.4772 11.9629 53.4772 11.9907 53.4772 12.0184V12.2403C53.4633 12.5315 53.6991 12.7812 53.9765 12.7812C53.9903 12.7812 54.0181 12.7812 54.0319 12.7812H57.7626V23.1404C57.7345 23.4317 57.9566 23.6813 58.2476 23.709C58.2757 23.709 58.3032 23.709 58.3308 23.709H58.6774C58.9551 23.7229 59.2048 23.5149 59.2185 23.2375C59.2185 23.2097 59.2185 23.182 59.2185 23.1543V12.7812H62.963C63.254 12.795 63.5036 12.5593 63.5036 12.2681C63.5311 12.2681 63.5311 12.2542 63.5311 12.2403Z" fill="#828282"/>
<path d="M66.7756 14.8066C65.6663 14.8482 64.6678 15.5139 64.1823 16.5123V15.4168C64.2104 15.1394 64.0021 14.876 63.7112 14.8482C63.6831 14.8482 63.6555 14.8482 63.6279 14.8482H63.3227C63.0311 14.8205 62.7815 15.0424 62.754 15.3336C62.754 15.3613 62.754 15.3891 62.754 15.4168V23.1273C62.7264 23.4185 62.9479 23.6681 63.2394 23.6959C63.267 23.6959 63.2951 23.6959 63.3227 23.6959H63.6417C63.9189 23.7236 64.1685 23.5017 64.1961 23.2243C64.1961 23.1966 64.1961 23.155 64.1961 23.1273V19.9377C64.1961 18.1349 65.0839 16.2211 66.7343 16.2211C67.039 16.2489 67.3168 16.0409 67.3443 15.7357C67.3443 15.708 67.3443 15.6803 67.3443 15.6664V15.3613C67.3719 15.084 67.1503 14.8344 66.8726 14.8066C66.8588 14.8066 66.8175 14.8066 66.7756 14.8066Z" fill="#828282"/>
<path d="M71.2863 14.6536C70.3016 14.6536 69.3311 14.917 68.4853 15.4302C68.2356 15.5688 68.1381 15.8878 68.277 16.1374C68.2907 16.1513 68.3045 16.179 68.3188 16.1929L68.4296 16.3732C68.5823 16.6367 68.9151 16.7199 69.1647 16.5673C69.1785 16.5673 69.1785 16.5535 69.1923 16.5535C69.8023 16.179 70.4961 15.9849 71.2031 15.971C72.5345 15.971 73.1726 16.6505 73.1726 18.0512V18.1898H72.8117C69.2479 18.1898 67.4311 19.2299 67.4311 21.2824C67.4311 23.0158 68.9564 23.9311 70.468 23.9311C71.3558 23.9311 72.2016 23.5706 72.8117 22.9188C72.9643 22.7662 73.0894 22.5859 73.2139 22.4056C73.2139 22.4056 73.2139 22.4472 73.2139 22.4611V23.1406C73.1864 23.418 73.3804 23.6676 73.6713 23.7092C73.7132 23.7092 73.7408 23.7092 73.7826 23.7092H74.0598C74.337 23.7231 74.5866 23.5151 74.601 23.2377C74.601 23.21 74.601 23.1823 74.601 23.1545V18.0928C74.6147 15.8739 73.436 14.6536 71.2863 14.6536ZM70.6901 22.6692C69.4695 22.6692 68.9151 21.8925 68.9151 21.1714C68.9151 19.535 71.0091 19.327 72.8398 19.327H73.1864V19.5905C73.1864 21.0744 72.2292 22.6692 70.6901 22.6692Z" fill="#828282"/>
<path d="M82.5295 14.8614H82.1691C81.8919 14.8475 81.6423 15.0278 81.5866 15.2913L79.3262 21.2406C79.2567 21.4347 79.1878 21.6427 79.1322 21.8369C79.0765 21.6427 79.0214 21.4347 78.952 21.2406L76.6915 15.3051C76.6221 15.0278 76.3725 14.8475 76.0953 14.8614H75.7206C75.5541 14.8475 75.3877 14.9168 75.2907 15.0555C75.2075 15.2081 75.2075 15.3745 75.2907 15.527L78.2725 23.2791C78.3557 23.5426 78.6054 23.709 78.8826 23.6952H79.4513C79.7147 23.709 79.9643 23.5426 80.0337 23.2791L83.0012 15.5548C83.0706 15.4022 83.0569 15.2219 82.9736 15.0833C82.8623 14.9307 82.6959 14.8475 82.5295 14.8614Z" fill="#828282"/>
<path d="M87.5364 14.6536C84.9569 14.6536 83.1681 16.5535 83.1681 19.2993C83.0849 21.7677 85.0125 23.834 87.4813 23.9173C87.5783 23.9173 87.689 23.9173 87.786 23.9173C88.854 23.9173 89.88 23.5706 90.7397 22.9326C90.9893 22.7662 91.0588 22.4334 90.8924 22.1977C90.8924 22.1977 90.8924 22.1977 90.8924 22.1838L90.754 21.9896C90.6846 21.8648 90.5733 21.7816 90.435 21.74C90.2823 21.7123 90.1159 21.7539 89.9908 21.8509C89.367 22.3363 88.6043 22.5998 87.8279 22.5998C86.3163 22.5998 84.7629 21.6291 84.6521 19.4518H90.6846C91.0037 19.4518 91.2533 19.2022 91.2671 18.8971V18.8832C91.2533 16.2761 89.8249 14.6536 87.5364 14.6536ZM87.495 15.8878C88.5349 15.8878 89.6723 16.5257 89.7831 18.3008H84.7072C84.9017 16.914 86.0942 15.8878 87.495 15.8878Z" fill="#828282"/>
<path d="M94.802 22.447C94.4967 22.4054 94.0393 22.3361 94.0393 21.3376V12.0184C94.0669 11.7272 93.8448 11.4776 93.5538 11.4499C93.5263 11.4499 93.4982 11.4499 93.4706 11.4499H93.1515C92.8744 11.4221 92.6247 11.644 92.5972 11.9214C92.5972 11.9491 92.5972 11.9907 92.5972 12.0184V21.5456C92.5972 23.4871 93.9142 23.7783 94.6912 23.7783C94.9822 23.8061 95.2318 23.6119 95.2731 23.3207C95.2731 23.2791 95.2731 23.2514 95.2731 23.2097V22.9601C95.3012 22.6967 95.0929 22.4747 94.8433 22.447C94.8295 22.447 94.8158 22.447 94.802 22.447Z" fill="#828282"/>
<path d="M9.98802 23.8064H4.94017C3.30377 23.8064 1.98633 22.475 1.98633 20.8525V15.8185C2.01406 15.4025 1.70897 15.0558 1.3068 15.0142C0.904638 14.9725 0.544075 15.2915 0.502472 15.6937C0.502472 15.7353 0.502472 15.7769 0.502472 15.8185V20.8525C0.502472 23.3071 2.49943 25.2902 4.94017 25.2902H9.97419C10.3902 25.2625 10.6953 24.9019 10.6537 24.4859C10.6398 24.1253 10.3486 23.8341 9.98802 23.8064Z" fill="#828282"/>
<path d="M11.487 9.86938H6.45298C6.03693 9.8971 5.73186 10.2577 5.77347 10.6737C5.8012 11.0343 6.09242 11.3255 6.45298 11.3532H11.487C13.1234 11.3532 14.4409 12.6845 14.4409 14.3209V19.3549C14.4686 19.771 14.8291 20.0761 15.2452 20.0345C15.6057 20.0067 15.897 19.7155 15.9247 19.3549V14.3209C15.9247 11.8663 13.9416 9.86938 11.487 9.86938Z" fill="#828282"/>
<path d="M4.22016 20.5334C3.95668 20.8385 3.98441 21.31 4.2895 21.5873C4.56686 21.8369 4.98289 21.8231 5.26025 21.5873L6.17555 20.6859C6.43901 20.367 6.39741 19.8955 6.07845 19.632C5.80109 19.4101 5.41279 19.4101 5.13544 19.632L4.22016 20.5334Z" fill="#828282"/>
<path d="M7.24279 17.5104C6.97927 17.8155 7.00704 18.2871 7.31211 18.5644C7.58946 18.814 8.00551 18.8002 8.28286 18.5644L9.18429 17.663C9.44775 17.344 9.40615 16.8725 9.08719 16.609C8.80984 16.3872 8.42157 16.3872 8.14422 16.609L7.24279 17.5104Z" fill="#828282"/>
<path d="M11.705 13.3367C11.5108 13.3367 11.3166 13.4199 11.178 13.5585L10.2766 14.46C10.0131 14.765 10.0408 15.2366 10.3459 15.5139C10.6233 15.7635 11.0393 15.7497 11.3166 15.5139L12.2181 14.6125C12.5093 14.3213 12.4954 13.8498 12.2042 13.5585C12.0933 13.4199 11.8991 13.3505 11.705 13.3367Z" fill="#828282"/>
<path d="M75.3347 27.2872V26.8989H77.5951V27.2872H76.6942V29.9498H76.25V27.2872H75.3347Z" fill="#828282"/>
<path d="M77.6464 29.9364V27.7868H78.0625V28.0919C78.1876 27.8839 78.3815 27.7729 78.6312 27.7729C78.6725 27.7729 78.7281 27.7729 78.7838 27.7868V28.2167C78.7419 28.2167 78.7006 28.2029 78.6725 28.2029C78.6449 28.2029 78.6174 28.2029 78.6036 28.2029C78.3953 28.2029 78.2427 28.2861 78.1457 28.4386C78.1319 28.4664 78.1181 28.4941 78.1181 28.5218C78.1044 28.5496 78.1043 28.5773 78.09 28.6051C78.0762 28.6328 78.0762 28.6605 78.0762 28.6883C78.0762 28.716 78.0762 28.7437 78.0625 28.7576C78.0625 28.7715 78.0625 28.7992 78.0625 28.8269C78.0625 28.8546 78.0625 28.8824 78.0625 28.924V29.9502H77.6464V29.9364Z" fill="#828282"/>
<path d="M79.0066 28.8542C79.0066 28.7017 79.0347 28.563 79.076 28.4382C79.1179 28.2995 79.173 28.1886 79.2562 28.0776C79.3394 27.9667 79.437 27.8835 79.5615 27.8281C79.6866 27.7587 79.8249 27.731 79.9776 27.731C80.2966 27.731 80.5325 27.8419 80.6989 28.0499V27.8003H81.1149V29.9498H80.6989V29.7002C80.6014 29.8111 80.5044 29.8943 80.3798 29.9359C80.2685 29.9775 80.1302 30.0052 79.9776 30.0052C79.8249 30.0052 79.6866 29.9775 79.5615 29.9082C79.437 29.8389 79.3394 29.7557 79.2562 29.6447C79.173 29.5338 79.1179 29.4089 79.076 29.2841C79.0209 29.1455 79.0066 29.0068 79.0066 28.8542ZM79.4645 28.5908C79.4507 28.6601 79.437 28.7294 79.4226 28.7988C79.4226 28.8681 79.4226 28.9375 79.437 29.0068C79.4507 29.0762 79.4645 29.1455 79.4783 29.2009C79.5058 29.2703 79.5339 29.3257 79.5615 29.3673C79.6034 29.4367 79.6723 29.4922 79.7555 29.5338C79.8387 29.5754 79.9219 29.5893 80.0332 29.5893C80.241 29.5893 80.3936 29.5199 80.5181 29.3812C80.6295 29.2425 80.6846 29.0623 80.6846 28.8542C80.6846 28.7571 80.6708 28.6601 80.6432 28.563C80.6157 28.466 80.5738 28.3966 80.5181 28.3273C80.463 28.2579 80.3936 28.2024 80.3104 28.1608C80.2272 28.1192 80.1302 28.1054 80.0332 28.1054C79.95 28.1054 79.8806 28.1192 79.8111 28.147C79.7417 28.1747 79.6866 28.2024 79.6447 28.2441C79.6034 28.2857 79.5615 28.3411 79.5202 28.3966C79.5058 28.466 79.4783 28.5214 79.4645 28.5908Z" fill="#828282"/>
<path d="M81.4639 27.7861H81.9075L82.4343 29.3255L82.9473 27.7861H83.3777L82.6007 29.9356H82.2403L81.4639 27.7861Z" fill="#828282"/>
<path d="M83.5853 28.8404C83.5853 28.7294 83.5991 28.6324 83.6128 28.5353C83.6409 28.4382 83.6685 28.355 83.7098 28.2718C83.7517 28.1886 83.793 28.1192 83.8487 28.0638C83.9044 28.0083 83.9595 27.9528 84.0289 27.9113C84.1121 27.8419 84.2091 27.8003 84.3061 27.7726C84.4036 27.7448 84.5144 27.731 84.6114 27.731C84.7084 27.731 84.8053 27.7448 84.9029 27.7726C84.9999 27.8003 85.0831 27.8419 85.1801 27.8974C85.2633 27.9528 85.3465 28.036 85.4159 28.1331C85.4854 28.2302 85.5405 28.355 85.5686 28.4937C85.5961 28.6046 85.6099 28.7433 85.6099 28.9097V28.9513H84.0151C84.0151 29.1594 84.0846 29.3257 84.2091 29.4505C84.3061 29.5615 84.4587 29.617 84.6533 29.617C84.7084 29.617 84.764 29.6031 84.8197 29.5893C84.8748 29.5754 84.9167 29.5476 84.958 29.5338C84.9999 29.506 85.0412 29.4783 85.0693 29.4367C85.0969 29.3951 85.1244 29.3535 85.1525 29.3119H85.5961C85.5267 29.4783 85.4435 29.617 85.3603 29.7141C85.2633 29.8111 85.1663 29.8805 85.055 29.9221C84.9718 29.9498 84.9029 29.9775 84.8472 29.9914C84.7778 30.0053 84.7084 30.0052 84.6389 30.0052C84.3204 30.0052 84.0565 29.9082 83.8625 29.7002C83.6823 29.4783 83.5853 29.2009 83.5853 28.8404ZM85.1663 28.6324C85.1525 28.466 85.0969 28.3412 84.9999 28.2441C84.8886 28.147 84.764 28.1054 84.6251 28.1054C84.4725 28.1054 84.348 28.1608 84.251 28.2579C84.1397 28.355 84.0845 28.4937 84.0564 28.6462H85.1663V28.6324Z" fill="#828282"/>
<path d="M87.0221 29.936V26.885H88.2428C88.3397 26.885 88.423 26.8989 88.5062 26.9128C88.5894 26.9266 88.6726 26.9682 88.742 27.0098C88.8109 27.0514 88.8803 27.093 88.9498 27.1624C89.0192 27.2179 89.0749 27.2872 89.1162 27.3704C89.2132 27.523 89.2551 27.6893 89.2551 27.8835C89.2551 28.0777 89.2132 28.2441 89.1162 28.3966C89.0192 28.5492 88.8941 28.6601 88.742 28.7572C88.5894 28.8404 88.423 28.882 88.2284 28.882H87.4382V29.9498H87.0221V29.936ZM87.4658 28.466H88.2428C88.423 28.466 88.5613 28.4105 88.6726 28.2995C88.7834 28.1886 88.839 28.05 88.839 27.8696C88.839 27.6893 88.7834 27.5507 88.6726 27.4398C88.5613 27.3288 88.4092 27.2733 88.2428 27.2733H87.4658V28.466Z" fill="#828282"/>
<path d="M89.3954 28.8404C89.3954 28.7294 89.4092 28.6324 89.4235 28.5353C89.4511 28.4382 89.4786 28.355 89.5205 28.2718C89.5619 28.1886 89.6037 28.1192 89.6588 28.0638C89.7145 28.0083 89.7702 27.9528 89.8396 27.9113C89.9228 27.8419 90.0198 27.8003 90.1168 27.7726C90.2138 27.7448 90.3245 27.731 90.4221 27.731C90.5191 27.731 90.616 27.7448 90.713 27.7726C90.81 27.8003 90.8932 27.8419 90.9902 27.8974C91.0734 27.9528 91.1566 28.036 91.2261 28.1331C91.2955 28.2302 91.3512 28.355 91.3787 28.4937C91.4063 28.6046 91.42 28.7433 91.42 28.9097V28.9513H89.8253C89.8253 29.1594 89.8947 29.3257 90.0198 29.4505C90.1168 29.5615 90.2694 29.617 90.4634 29.617C90.519 29.617 90.5742 29.6031 90.6298 29.5893C90.6855 29.5754 90.7268 29.5476 90.7687 29.5338C90.81 29.506 90.8519 29.4783 90.8794 29.4367C90.907 29.3951 90.9351 29.3535 90.9627 29.3119H91.4063C91.3368 29.4783 91.2536 29.617 91.1704 29.7141C91.0734 29.8111 90.9764 29.8805 90.8657 29.9221C90.7825 29.9498 90.713 29.9775 90.6574 29.9914C90.5885 30.0053 90.5191 30.0052 90.4496 30.0052C90.1306 30.0052 89.8671 29.9082 89.6732 29.7002C89.4924 29.4783 89.3954 29.2009 89.3954 28.8404ZM90.9764 28.6324C90.9627 28.466 90.907 28.3412 90.81 28.2441C90.6993 28.147 90.5742 28.1054 90.4358 28.1054C90.2832 28.1054 90.1581 28.1608 90.0611 28.2579C89.9504 28.355 89.8947 28.4937 89.8672 28.6462H90.9764V28.6324Z" fill="#828282"/>
<path d="M91.9311 29.9364V27.7868H92.3471V28.0919C92.4717 27.8839 92.6662 27.7729 92.9158 27.7729C92.9571 27.7729 93.0128 27.7729 93.0679 27.7868V28.2167C93.0266 28.2167 92.9847 28.2029 92.9572 28.2029C92.9296 28.2029 92.9015 28.2029 92.8877 28.2029C92.68 28.2029 92.5273 28.2861 92.4303 28.4386C92.4166 28.4664 92.4022 28.4941 92.4022 28.5218C92.3885 28.5496 92.3885 28.5773 92.3747 28.6051C92.3609 28.6328 92.3609 28.6605 92.3609 28.6883C92.3609 28.716 92.3609 28.7437 92.3471 28.7576C92.3471 28.7715 92.3471 28.7992 92.3471 28.8269C92.3471 28.8546 92.3471 28.8824 92.3471 28.924V29.9502H91.9311V29.9364Z" fill="#828282"/>
<path d="M93.4592 29.936V26.885H93.8752V28.6463L94.7211 27.7864H95.2617L94.2632 28.7711L95.2898 29.936H94.7073L93.8752 28.9513V29.936H93.4592Z" fill="#828282"/>
<path d="M86.1209 29.506C86.1209 29.6447 86.1628 29.7557 86.246 29.8389C86.3155 29.9082 86.4124 29.9498 86.537 29.9498V29.3535V28.2163V26.885H86.1209V29.506Z" fill="#828282"/>
<path d="M54.0756 27.1211H54.8244C55.3653 27.1211 55.7813 27.343 55.7813 27.9115V27.9254C55.7813 28.5078 55.3653 28.7298 54.8244 28.7298H54.2975V29.9363H54.0756V27.1211ZM54.8383 28.5494C55.296 28.5494 55.5594 28.3553 55.5594 27.9254V27.9115C55.5594 27.4539 55.2682 27.3013 54.8244 27.3013H54.2836V28.5494H54.8383Z" fill="#828282"/>
<path d="M56.0291 28.9237V28.896C56.0291 28.2719 56.4727 27.842 57.0276 27.842C57.582 27.842 58.0261 28.258 58.0261 28.8821V28.9098C58.0261 29.5339 57.582 29.9638 57.0276 29.9638C56.4589 29.9638 56.0291 29.5339 56.0291 28.9237ZM57.8041 28.9237V28.896C57.8041 28.3551 57.4712 28.0223 57.0276 28.0223C56.584 28.0223 56.2512 28.3551 56.2512 28.896V28.9237C56.2512 29.4507 56.584 29.7835 57.0276 29.7835C57.4712 29.7835 57.8041 29.4507 57.8041 28.9237Z" fill="#828282"/>
<path d="M58.2625 27.8701H58.484L59.0389 29.6729L59.6076 27.8701H59.7878L60.3284 29.6729L60.8833 27.8701H61.0911L60.4397 29.9364H60.2039L59.6908 28.2168L59.1497 29.9364H58.9138L58.2625 27.8701Z" fill="#828282"/>
<path d="M61.341 28.9237V28.896C61.341 28.2719 61.7295 27.842 62.2845 27.842C62.7837 27.842 63.1855 28.161 63.1855 28.8405V28.9098H61.5493C61.5631 29.4645 61.8265 29.7697 62.312 29.7697C62.6586 29.7697 62.8807 29.631 62.9639 29.3397H63.1717C63.0885 29.7281 62.7556 29.9499 62.312 29.9499C61.7158 29.9638 61.341 29.5477 61.341 28.9237ZM62.9639 28.7573C62.9501 28.258 62.6862 28.0223 62.2845 28.0223C61.8822 28.0223 61.605 28.2996 61.5631 28.7573H62.9639Z" fill="#828282"/>
<path d="M63.6696 27.8698H63.8779V28.2996C63.9887 28.0501 64.1964 27.8559 64.5711 27.842V28.0362C64.1688 28.0501 63.8779 28.2303 63.8779 28.785V29.9222H63.6696V27.8698Z" fill="#828282"/>
<path d="M64.8059 28.9237V28.896C64.8059 28.2719 65.1944 27.842 65.7488 27.842C66.248 27.842 66.6503 28.161 66.6503 28.8405V28.9098H65.0136C65.028 29.4645 65.2914 29.7697 65.7763 29.7697C66.1235 29.7697 66.345 29.631 66.4282 29.3397H66.6365C66.5533 29.7281 66.2205 29.9499 65.7763 29.9499C65.1944 29.9638 64.8059 29.5477 64.8059 28.9237ZM66.442 28.7573C66.4282 28.258 66.1648 28.0223 65.7625 28.0223C65.3603 28.0223 65.0831 28.2996 65.0417 28.7573H66.442Z" fill="#828282"/>
<path d="M67.0001 28.9375V28.9098C67.0001 28.2718 67.4161 27.8558 67.9567 27.8558C68.359 27.8558 68.5949 28.0915 68.7056 28.3412V26.8989H68.9139V29.9498H68.7056V29.4783C68.5949 29.728 68.3039 29.9914 67.9154 29.9914C67.4024 29.9637 67.0001 29.5893 67.0001 28.9375ZM68.7056 28.9236V28.8959C68.7056 28.3273 68.4009 28.0361 67.971 28.0361C67.5269 28.0361 67.2078 28.3551 67.2078 28.9098V28.9375C67.2078 29.5061 67.5269 29.7973 67.9429 29.7973C68.359 29.7834 68.7056 29.4783 68.7056 28.9236Z" fill="#828282"/>
<path d="M70.7404 29.4644V29.936H70.5321V26.885H70.7404V28.355C70.8649 28.0915 71.1564 27.8419 71.5306 27.8419C72.0436 27.8419 72.4597 28.2441 72.4597 28.882V28.9097C72.4597 29.5615 72.0717 29.9637 71.5306 29.9637C71.1145 29.9637 70.8511 29.7141 70.7404 29.4644ZM72.2238 28.9236V28.8958C72.2238 28.3273 71.891 28.0222 71.4893 28.0222C71.087 28.0222 70.7261 28.3273 70.7261 28.8958V28.9236C70.7261 29.4922 71.0732 29.7834 71.5031 29.7834C71.9329 29.7834 72.2238 29.4783 72.2238 28.9236Z" fill="#828282"/>
<path d="M73.4881 29.7561L72.6703 27.8701H72.8918L73.5994 29.5065L74.2513 27.8701H74.459L73.3216 30.6437H73.1001L73.4881 29.7561Z" fill="#828282"/>
</g>
</g>
<defs>
<clipPath id="clip0_1320_3501">
<rect width="95.3338" height="35.8191" fill="white" transform="translate(0.505005 0.496826)"/>
</clipPath>
</defs>
</svg>
