<svg width="45" height="37" viewBox="0 0 45 37" fill="none" xmlns="http://www.w3.org/2000/svg">
<g clip-path="url(#clip0_1320_3474)">
<path d="M0.0935364 18.57C0.0935364 22.2718 2.65589 24.5727 5.89807 24.5727C7.0375 24.5727 8.17694 24.2974 9.00811 23.6754V20.7828C8.25491 21.4553 7.27931 21.8249 6.26959 21.8204C4.58523 21.8204 3.24213 20.6149 3.24213 18.5783C3.24213 16.5416 4.57973 15.3581 6.26959 15.3581C7.28454 15.3387 8.26875 15.7068 9.02189 16.3874V13.4893C8.19623 12.8535 7.05128 12.6113 5.91184 12.6113C2.65589 12.6113 0.0935364 14.9122 0.0935364 18.57Z" fill="#828282"/>
<path d="M15.6136 12.6113C12.3109 12.6113 10.0045 15.0664 10.0045 18.57C10.0045 22.0736 12.3054 24.5727 15.6136 24.5727C18.9218 24.5727 21.242 22.0956 21.242 18.57C21.242 15.0443 18.9439 12.6113 15.6136 12.6113ZM15.6136 21.8782C14.0366 21.8782 13.1586 20.5021 13.1586 18.5755C13.1586 16.6489 14.0366 15.2893 15.6136 15.2893C17.1906 15.2893 18.0658 16.6654 18.0658 18.5755C18.0658 20.4855 17.2127 21.8782 15.6136 21.8782Z" fill="#828282"/>
<path d="M30.33 13.817C29.9542 13.4312 29.5042 13.1254 29.0071 12.9183C28.5099 12.7111 27.9759 12.6067 27.4373 12.6115C24.1071 12.6115 22.2245 15.306 22.2245 18.5702C22.2245 21.8729 24.1071 24.5729 27.4373 24.5729C27.9752 24.5727 28.5077 24.4661 29.0041 24.2592C29.5006 24.0523 29.9512 23.7492 30.33 23.3674V24.3114H33.5061V9.16016H30.33V13.817ZM30.33 20.4775C30.1241 20.8745 29.8127 21.2071 29.4301 21.4387C29.0475 21.6703 28.6085 21.792 28.1612 21.7903C26.43 21.7903 25.4089 20.4142 25.4089 18.5702C25.4089 16.7262 26.4383 15.372 28.1612 15.372C28.6109 15.373 29.0516 15.4986 29.4345 15.7346C29.8172 15.9707 30.1272 16.3082 30.33 16.7096V20.4775Z" fill="#828282"/>
<path d="M39.6134 12.6636C38.0804 12.6636 36.6135 13.0819 35.7796 13.6076V16.3599C36.7094 15.7471 37.7979 15.419 38.9116 15.4159C40.5327 15.4159 41.4767 16.1176 41.4767 17.2351V17.8709C41.0143 17.5406 39.8969 17.1911 38.9116 17.1911C36.3933 17.1911 34.4887 18.68 34.4887 20.8709C34.4887 23.2378 36.3933 24.5726 38.7162 24.5726C39.963 24.5726 41.1024 24.135 41.4685 23.7634V24.3772H44.5345V17.0452C44.5427 14.2627 42.7455 12.6636 39.6134 12.6636ZM41.4767 21.2507C41.2015 21.8644 40.3593 22.2387 39.4593 22.2387C38.452 22.2387 37.4226 21.8203 37.4226 20.835C37.4226 19.8497 38.452 19.4342 39.4593 19.4342C40.3593 19.4342 41.1905 19.8057 41.4767 20.4195V21.2507Z" fill="#828282"/>
</g>
<defs>
<clipPath id="clip0_1320_3474">
<rect width="44.6362" height="35.8192" fill="white" transform="translate(0.0935364 0.496826)"/>
</clipPath>
</defs>
</svg>
