<svg width="44" height="37" viewBox="0 0 44 37" fill="none" xmlns="http://www.w3.org/2000/svg">
<g clip-path="url(#clip0_1320_3565)">
<mask id="mask0_1320_3565" style="mask-type:luminance" maskUnits="userSpaceOnUse" x="0" y="9" width="84" height="18">
<path d="M83.3144 9.89697H0.647827V26.9531H83.3144V9.89697Z" fill="white"/>
</mask>
<g mask="url(#mask0_1320_3565)">
<path d="M5.48473 14.8414L5.47672 14.8485L5.4691 14.8561C4.98832 15.3302 4.60689 15.8954 4.34712 16.5187C4.08756 17.1414 3.95466 17.8096 3.95616 18.4843C3.95247 19.1584 4.08168 19.8266 4.33642 20.4507C4.59138 21.0754 4.96706 21.6436 5.44196 22.1229L5.44999 22.131L5.45846 22.1386C5.60422 22.2703 5.72163 22.4303 5.80353 22.6088C5.88544 22.7874 5.93013 22.9807 5.93488 23.1771C5.93962 23.3735 5.90432 23.5687 5.83113 23.7511C5.75794 23.9334 5.64839 24.0988 5.50916 24.2374C5.36993 24.376 5.20394 24.4847 5.02131 24.5571C4.83867 24.6294 4.64322 24.6637 4.44687 24.6581C4.25052 24.6524 4.05737 24.6068 3.87922 24.5241C3.70106 24.4413 3.54163 24.3232 3.41063 24.1768L3.40342 24.1687L3.3958 24.1611C1.89547 22.6514 1.05624 20.6076 1.06269 18.4792C1.06914 16.3508 1.92075 14.3121 3.4302 12.8116L3.43861 12.8032L3.44654 12.7944C3.57797 12.6478 3.73793 12.5296 3.91663 12.447C4.09533 12.3644 4.28902 12.3191 4.48582 12.314C4.68263 12.3088 4.87841 12.3439 5.06119 12.4171C5.24397 12.4902 5.40989 12.5999 5.5488 12.7394C5.68771 12.879 5.79668 13.0453 5.86904 13.2284C5.9414 13.4115 5.97564 13.6075 5.96963 13.8042C5.96364 14.001 5.91754 14.1945 5.83416 14.3729C5.75078 14.5512 5.63188 14.7106 5.48473 14.8414Z" stroke="#828282" stroke-width="0.826666"/>
<path d="M12.7488 14.9005L12.7405 14.8912L12.7317 14.8824C11.7707 13.9174 10.4663 13.3728 9.10448 13.3679C7.74258 13.3631 6.43435 13.8984 5.46653 14.8565L5.45854 14.8644L5.45099 14.8727C5.31884 15.0186 5.15833 15.136 4.97925 15.2177C4.80018 15.2994 4.60632 15.3436 4.40954 15.3478C4.21275 15.352 4.01719 15.316 3.83481 15.242C3.65243 15.168 3.48707 15.0575 3.34886 14.9174C3.21064 14.7773 3.10247 14.6104 3.03098 14.427C2.95948 14.2436 2.92616 14.0476 2.93305 13.8509C2.93993 13.6542 2.98689 13.4609 3.07104 13.283C3.15519 13.1051 3.27476 12.9462 3.42244 12.8161L3.43196 12.8077L3.44095 12.7987C4.18705 12.0552 5.07268 11.4664 6.04699 11.0662C7.02128 10.6659 8.06509 10.4621 9.11837 10.4664C10.1717 10.4707 11.2137 10.683 12.1847 11.0912C13.1558 11.4994 14.0366 12.0953 14.7766 12.8449L14.7859 12.8543L14.7958 12.8632C14.9431 12.9944 15.062 13.1544 15.1452 13.3332C15.2284 13.5121 15.2741 13.7061 15.2796 13.9033C15.285 14.1005 15.2501 14.2968 15.1769 14.4799C15.1037 14.6632 14.9938 14.8295 14.854 14.9686C14.7141 15.1078 14.5473 15.2169 14.3638 15.2893C14.1802 15.3616 13.9838 15.3956 13.7867 15.3892C13.5895 15.3828 13.3957 15.3362 13.2172 15.2521C13.0387 15.1681 12.8793 15.0484 12.7488 14.9005Z" stroke="#828282" stroke-width="0.826666"/>
<path d="M9.08038 23.2269C8.45972 23.2278 7.84512 23.1049 7.27252 22.8654C6.69997 22.6258 6.18093 22.2745 5.74581 21.8319C5.57765 21.6427 5.37265 21.4898 5.14335 21.3826C4.91405 21.2754 4.66528 21.2161 4.41227 21.2084C4.15927 21.2007 3.90735 21.2447 3.67195 21.3377C3.43655 21.4308 3.22261 21.5709 3.04324 21.7495C2.86387 21.9281 2.72284 22.1414 2.62878 22.3764C2.53473 22.6114 2.48962 22.8631 2.49624 23.1162C2.50286 23.3692 2.56105 23.6182 2.66726 23.848C2.77347 24.0777 2.92546 24.2834 3.11392 24.4524C3.89352 25.2406 4.82102 25.8673 5.84326 26.2964C6.86552 26.7255 7.9624 26.9487 9.07101 26.9531C10.1797 26.9575 11.2783 26.7431 12.3039 26.3221C13.3296 25.9011 14.262 25.2819 15.0479 24.4999C15.2215 24.3279 15.3596 24.1234 15.4541 23.8981C15.5487 23.6727 15.598 23.431 15.5991 23.1865C15.6003 22.9421 15.5533 22.6999 15.4609 22.4737C15.3684 22.2474 15.2323 22.0417 15.0603 21.868C14.8883 21.6944 14.6837 21.5564 14.4584 21.4618C14.233 21.3672 13.9913 21.3179 13.7469 21.3167C13.5025 21.3156 13.2603 21.3626 13.0341 21.4551C12.8078 21.5475 12.602 21.6836 12.4284 21.8556M9.08038 23.2269L9.07851 23.6402C9.0789 23.6402 9.07928 23.6402 9.07972 23.6402M9.08038 23.2269C9.70121 23.2297 10.3165 23.11 10.8909 22.8747C11.4655 22.6395 11.9879 22.2931 12.4284 21.8556M9.08038 23.2269L9.08099 23.6402C9.08055 23.6402 9.08011 23.6402 9.07972 23.6402M12.4284 21.8556L12.7195 22.1491M9.07972 23.6402C8.4045 23.641 7.73589 23.5072 7.11303 23.2466C6.48972 22.9859 5.92472 22.6034 5.45107 22.1216L5.44378 22.1142L5.43688 22.1065C5.30608 21.9593 5.14664 21.8404 4.96829 21.757C4.78995 21.6736 4.59646 21.6276 4.39968 21.6216C4.2029 21.6155 4.00696 21.6498 3.82387 21.7221C3.64078 21.7945 3.47439 21.9035 3.33487 22.0424C3.19536 22.1813 3.08567 22.3472 3.01252 22.53C2.93936 22.7127 2.90429 22.9086 2.90943 23.1054C2.91458 23.3022 2.95984 23.4958 3.04245 23.6745C3.12505 23.8533 3.24327 24.0132 3.38985 24.1446L3.39908 24.1529L3.40779 24.1617C4.14915 24.9113 5.03116 25.5072 6.00325 25.9153C6.97536 26.3234 8.01839 26.5356 9.07267 26.5398C10.1269 26.544 11.1717 26.34 12.147 25.9398C13.1223 25.5395 14.009 24.9506 14.7563 24.2069L14.757 24.2063C14.8921 24.0725 14.9994 23.9134 15.073 23.7381C15.1466 23.5628 15.1849 23.3747 15.1858 23.1846C15.1867 22.9945 15.1502 22.8061 15.0782 22.6301C15.0063 22.4541 14.9004 22.294 14.7666 22.1589C14.6328 22.0239 14.4737 21.9164 14.2984 21.8429C14.1232 21.7693 13.9351 21.7309 13.7449 21.7301C13.5549 21.7292 13.3664 21.7657 13.1904 21.8376C13.0145 21.9096 12.8545 22.0154 12.7195 22.1491M9.07972 23.6402C9.75445 23.6431 10.4232 23.513 11.0476 23.2572C11.6724 23.0014 12.2405 22.6248 12.7195 22.1491M12.7195 22.1491C12.7195 22.149 12.7194 22.1492 12.7195 22.1491Z" stroke="#828282" stroke-width="0.826666"/>
<path d="M23.3477 20.3077C23.8839 19.9026 23.9553 20.129 24.4078 20.5815C24.6342 20.8078 25.2531 21.2015 24.8481 21.5343C24.0028 22.2246 23.2402 22.5346 22.1614 22.5346C19.7196 22.5231 17.9929 20.7004 18.1314 18.2824C18.1903 17.1994 18.6191 16.1744 19.4654 15.4717C20.2394 14.8166 21.2035 14.5314 22.2162 14.5551C22.7125 14.5536 23.2042 14.6506 23.6628 14.8403C23.9734 14.9525 24.2662 15.1091 24.5318 15.3054C25.0682 15.7187 24.8181 15.9605 24.4006 16.3769C24.3055 16.472 24.2105 16.5681 24.1268 16.6631C23.9129 16.877 23.7693 17.032 23.4841 16.8295C22.9364 16.4482 22.2441 16.2457 21.5899 16.4162C19.482 16.9514 19.577 20.7035 22.1624 20.7159C22.591 20.7102 23.0065 20.5671 23.3477 20.3077ZM81.9446 22.581C81.8603 22.5815 81.7765 22.5651 81.6983 22.533C81.62 22.5008 81.5489 22.4535 81.4888 22.3937C81.4293 22.334 81.3819 22.263 81.3494 22.1848C81.3175 22.1067 81.3009 22.0228 81.3009 21.9383L81.3373 13.6251C81.3367 13.5406 81.3533 13.4568 81.3852 13.3785C81.4172 13.3003 81.4646 13.2292 81.5247 13.1694C81.5842 13.1095 81.6553 13.0621 81.7335 13.0298C81.8118 12.9976 81.8956 12.9811 81.9799 12.9814H82.6715C82.7559 12.9811 82.8396 12.9976 82.9179 13.0299C82.9961 13.0623 83.0672 13.1098 83.1273 13.1698C83.1868 13.2297 83.2342 13.3009 83.2662 13.3792C83.2981 13.4576 83.3147 13.5415 83.3141 13.6262L83.2778 21.9394C83.2783 22.0238 83.2618 22.1076 83.2298 22.1858C83.1978 22.264 83.1504 22.3349 83.0904 22.3947C83.0309 22.4545 82.9598 22.5018 82.8815 22.534C82.8032 22.5661 82.7195 22.5825 82.6352 22.5821L81.9446 22.581ZM78.3282 21.617C77.5782 22.3196 76.8628 22.6885 75.8025 22.6885C73.6598 22.6761 72.6347 20.9019 72.6347 18.9127L72.6468 15.5306C72.6468 15.4461 72.6634 15.3623 72.6953 15.2843C72.7278 15.2061 72.7752 15.1352 72.8348 15.0755C72.8948 15.0159 72.9659 14.9686 73.0442 14.9366C73.1224 14.9046 73.2062 14.8883 73.2905 14.8889H73.9822C74.0665 14.8885 74.1503 14.9048 74.2285 14.937C74.3068 14.9691 74.3779 15.0165 74.4374 15.0763C74.4969 15.136 74.5443 15.207 74.5768 15.2852C74.6088 15.3633 74.6253 15.4471 74.6248 15.5316L74.6132 18.9138C74.6132 20.0215 75.2084 20.8905 76.3762 20.8905C77.544 20.8905 78.2577 19.914 78.2693 18.8238V17.6159C78.2599 17.5689 78.256 17.5211 78.2577 17.4733L78.2693 15.5554C78.2687 15.4709 78.2852 15.3871 78.3172 15.3089C78.3497 15.2308 78.3971 15.1598 78.4566 15.1C78.5162 15.0402 78.5873 14.9929 78.6655 14.9608C78.7438 14.9286 78.8275 14.9123 78.9118 14.9127H79.5941C79.6785 14.9123 79.7622 14.9286 79.8405 14.9608C79.9187 14.9929 79.9898 15.0402 80.0494 15.1C80.1094 15.1598 80.1563 15.2308 80.1888 15.3089C80.2207 15.3871 80.2373 15.4709 80.2367 15.5554L80.2141 21.9394C80.2125 22.1083 80.1436 22.2696 80.0234 22.388C79.9028 22.5063 79.7402 22.5721 79.5715 22.5707H78.9874C78.8215 22.5655 78.6639 22.4974 78.5465 22.38C78.4296 22.2627 78.3613 22.1051 78.3563 21.9394L78.3282 21.617ZM70.1062 14.9127H71.4399C71.5248 14.9139 71.608 14.9318 71.6857 14.9655C71.7634 14.9991 71.8334 15.0478 71.8924 15.1087C71.9508 15.1696 71.9971 15.2415 72.0279 15.3204C72.0582 15.3991 72.0731 15.4833 72.0715 15.5678V16.008C72.0698 16.1777 72.002 16.3401 71.8824 16.4603C71.7623 16.5805 71.6003 16.6489 71.4305 16.6507H70.0935L70.0698 21.9031C70.0704 21.9877 70.0539 22.0716 70.0219 22.1498C69.9894 22.228 69.9425 22.2991 69.8825 22.3589C69.8229 22.4188 69.7518 22.4662 69.6736 22.4985C69.5953 22.5308 69.5116 22.5472 69.4272 22.547H68.7367C68.6524 22.5472 68.5686 22.5308 68.4904 22.4985C68.4121 22.4662 68.341 22.4188 68.2809 22.359C68.2214 22.2992 68.1735 22.2281 68.1415 22.1498C68.109 22.0716 68.093 21.9878 68.093 21.9031L68.1167 14.6388C68.1167 13.0547 69.0222 11.8034 70.6424 11.6608C70.6898 11.6608 70.7251 11.6494 70.7725 11.6494C70.8678 11.6432 70.9632 11.6432 71.0585 11.6494H71.6785C71.7634 11.6506 71.8466 11.6685 71.9243 11.7021C72.0015 11.7357 72.072 11.7843 72.1304 11.845C72.1894 11.9059 72.2351 11.9776 72.266 12.0563C72.2969 12.135 72.3118 12.219 72.3101 12.3035V12.7086C72.309 12.8788 72.2412 13.0418 72.1205 13.1622C72.0004 13.2827 71.8378 13.351 71.6675 13.3523H71.1671C70.4044 13.3523 70.0831 13.9351 70.0709 14.6502L70.1062 14.9127ZM65.3187 14.8889H66.7808C66.9494 14.8905 67.1109 14.9592 67.2294 15.0796C67.3479 15.2002 67.4135 15.3627 67.4118 15.5316V15.9718C67.4102 16.1407 67.3418 16.3021 67.2211 16.4205C67.101 16.5389 66.9384 16.6046 66.7692 16.6032H65.306L65.295 19.8169C65.295 20.4369 65.5926 20.7934 66.2115 20.7934H66.5091C66.6777 20.7953 66.8392 20.8641 66.9577 20.9848C67.0762 21.1055 67.1418 21.2681 67.1401 21.4371V21.8835C67.1385 22.0523 67.0696 22.2136 66.9494 22.3319C66.8288 22.4502 66.6662 22.516 66.4975 22.5149H65.9376C65.834 22.517 65.7304 22.5128 65.6273 22.5025C64.0434 22.3991 63.3408 21.372 63.3408 19.8231C63.3529 17.7388 63.3529 15.667 63.3645 13.5828C63.3656 13.499 63.3827 13.4163 63.4152 13.3393C63.4482 13.2622 63.4956 13.1924 63.5557 13.1338C63.6152 13.0751 63.6863 13.0288 63.764 12.9975C63.8417 12.9663 63.9244 12.9506 64.0082 12.9514H64.6871C64.8563 12.9531 65.0173 13.0217 65.1357 13.1421C65.2542 13.2627 65.3198 13.4252 65.3187 13.5942V14.8889ZM44.1352 14.8052H45.5974C45.7663 14.8068 45.9277 14.8754 46.046 14.996C46.1644 15.1164 46.2301 15.279 46.2287 15.4479V15.8902C46.2268 16.059 46.1581 16.2203 46.0377 16.3385C45.9172 16.4569 45.7548 16.5227 45.586 16.5216H44.1187V19.7363C44.1187 20.3563 44.4163 20.7128 45.0352 20.7128H45.3339C45.4174 20.7136 45.5001 20.7308 45.577 20.7636C45.6539 20.7963 45.7236 20.8439 45.7822 20.9036C45.8407 20.9633 45.8869 21.0339 45.9181 21.1114C45.9494 21.189 45.965 21.2719 45.9642 21.3555V21.7957C45.9625 21.9646 45.894 22.126 45.7735 22.2443C45.6529 22.3627 45.4904 22.4285 45.3215 22.4271H44.8813C43.1535 22.4157 42.1533 21.6769 42.1533 19.7404C42.1657 17.6562 42.1657 15.5833 42.177 13.4991C42.1789 13.3301 42.2478 13.1687 42.3685 13.0504C42.4891 12.932 42.6518 12.8663 42.8208 12.8677H43.4997C43.6686 12.8696 43.8299 12.9385 43.9481 13.0592C44.0662 13.1799 44.1317 13.3425 44.13 13.5115L44.1352 14.8052ZM35.5369 15.7104C36.2395 15.0553 37.0021 14.6388 37.99 14.6388C40.1342 14.6502 41.2419 16.3955 41.2295 18.4136L41.2181 21.7957C41.2184 21.8803 41.2019 21.9642 41.1696 22.0424C41.1374 22.1206 41.09 22.1917 41.0302 22.2515C40.9703 22.3114 40.8993 22.3588 40.821 22.391C40.7428 22.4233 40.659 22.4397 40.5743 22.4395H39.8841C39.7995 22.4397 39.7157 22.4233 39.6374 22.391C39.5592 22.3588 39.4881 22.3114 39.4282 22.2515C39.3685 22.1917 39.321 22.1206 39.2888 22.0424C39.2565 21.9642 39.24 21.8803 39.2403 21.7957L39.2527 18.4374C39.2527 17.3296 38.6575 16.4606 37.4898 16.4606C36.3222 16.4606 35.6082 17.4258 35.5968 18.5211L35.5844 21.7957C35.5828 21.9646 35.5141 22.126 35.3936 22.2443C35.2731 22.3627 35.1106 22.4285 34.9417 22.4271H34.2627C34.0938 22.4254 33.9325 22.3568 33.8141 22.2363C33.6957 22.1158 33.63 21.9532 33.6314 21.7843C33.6427 19.7476 33.6427 17.6996 33.6551 15.6629V15.389C33.6557 15.2203 33.7231 15.0587 33.8426 14.9395C33.9621 14.8204 34.124 14.7535 34.2927 14.7535H34.8766C35.0424 14.7585 35.2002 14.8266 35.3175 14.9439C35.4349 15.0613 35.503 15.219 35.5079 15.3849L35.5369 15.7104ZM56.7605 15.7931C57.4632 15.139 58.2248 14.7215 59.2135 14.7215C61.3579 14.7339 62.4645 16.4844 62.4529 18.4973L62.4408 21.8835C62.4414 21.9681 62.4248 22.0519 62.3929 22.1302C62.3603 22.2084 62.313 22.2794 62.2534 22.3393C62.1939 22.3991 62.1228 22.4465 62.0446 22.4788C61.9663 22.5111 61.8825 22.5276 61.7982 22.5273H61.1077C61.0228 22.5276 60.939 22.5111 60.8608 22.4788C60.7825 22.4466 60.712 22.3992 60.6519 22.3394C60.5918 22.2795 60.5444 22.2085 60.5125 22.1302C60.48 22.052 60.4634 21.9681 60.464 21.8835L60.4761 18.5252C60.4761 17.4175 59.8803 16.5484 58.7136 16.5484C57.5469 16.5484 56.8316 17.5126 56.8195 18.6089L56.8029 21.8835C56.8007 22.0526 56.7319 22.2139 56.6112 22.3322C56.491 22.4506 56.3279 22.5163 56.1592 22.5149H55.4802C55.3114 22.513 55.1503 22.4443 55.0322 22.3238C54.914 22.2033 54.8484 22.0409 54.8498 21.8722L54.8736 15.4758C54.8739 15.3918 54.8908 15.3086 54.9233 15.2311C54.9558 15.1535 55.0034 15.0832 55.0633 15.0241C55.1231 14.9651 55.194 14.9184 55.272 14.8869C55.3499 14.8553 55.4333 14.8395 55.5174 14.8403H56.1014C56.2678 14.8458 56.426 14.9148 56.5428 15.0332C56.6602 15.1516 56.7274 15.3103 56.7313 15.4769L56.7605 15.7931ZM29.0527 14.5789C26.7298 14.5665 25.0867 16.2457 25.0743 18.5562C25.063 20.8905 26.6822 22.547 29.0289 22.5583C31.3756 22.5697 33.0186 20.9267 33.03 18.5769C33.0424 16.2818 31.3632 14.5903 29.0527 14.5789ZM48.3347 19.355C48.501 20.4266 49.5261 20.8667 50.5263 20.8791C51.0278 20.8748 51.5228 20.7653 51.9792 20.5578C52.0527 20.5279 52.1241 20.4934 52.1931 20.4544C52.4318 20.3232 52.6458 20.2406 52.8607 20.4544C52.9795 20.5733 53.087 20.6931 53.2058 20.7995C53.3181 20.9067 53.4217 21.0224 53.5158 21.1458C53.8371 21.5498 53.6109 21.6459 53.2419 21.8959C52.4556 22.4198 51.4315 22.6813 50.4902 22.6813C47.9658 22.6699 46.298 21.1313 46.298 18.5851C46.3104 16.1785 47.9771 14.583 50.3827 14.5944C52.8369 14.6068 54.2298 16.0483 54.266 18.5014C54.2774 19.1679 54.3011 19.3829 53.6109 19.3829L48.3347 19.355ZM29.0527 16.3769C30.2555 16.3769 31.0532 17.4258 31.0532 18.581C31.0532 19.7838 30.303 20.751 29.0403 20.751C27.7775 20.751 27.0398 19.7745 27.0398 18.5717C27.0398 17.3689 27.8023 16.3769 29.0527 16.3769ZM48.3874 17.6996L52.3419 17.711C52.1983 16.722 51.3768 16.3294 50.4365 16.3294C49.4962 16.3294 48.6798 16.7706 48.3874 17.6996Z" fill="#828282"/>
</g>
</g>
<defs>
<clipPath id="clip0_1320_3565">
<rect width="82.6666" height="35.8222" fill="white" transform="translate(0.647034 0.495361)"/>
</clipPath>
</defs>
</svg>
