<svg width="62" height="37" viewBox="0 0 62 37" fill="none" xmlns="http://www.w3.org/2000/svg">
<g clip-path="url(#clip0_1320_3549)">
<path fill-rule="evenodd" clip-rule="evenodd" d="M7.5236 12.5263C7.67888 12.371 7.79532 12.2545 7.64004 12.2545C7.61182 12.2545 7.56769 12.2575 7.51082 12.2613C7.02045 12.2938 5.58523 12.3892 5.27216 11.2065C4.9228 9.88667 6.82489 5.96606 6.90253 5.81078C6.94132 5.65551 6.82489 5.46143 6.59196 5.46143C6.45784 5.46143 6.34229 5.57263 6.27087 5.64136C6.23891 5.67209 6.21577 5.69433 6.20381 5.69433C5.71613 6.30877 5.17701 6.95999 4.63752 7.61165C3.02988 9.55356 1.41906 11.4993 1.15747 12.4875C0.264665 15.787 3.71945 17.1456 5.89325 17.3785C5.93207 17.3785 5.93207 17.3397 5.93207 17.3397V16.1751C5.97088 14.5836 6.55317 13.3802 7.5236 12.5263ZM61.4808 12.4875C61.2047 11.4461 59.4552 9.34141 57.7569 7.29838L57.7563 7.29833C57.3023 6.75214 56.8521 6.21019 56.4344 5.69433C56.4283 5.6885 56.4206 5.67916 56.4112 5.66749C56.3578 5.60155 56.2443 5.46143 56.0459 5.46143C55.8519 5.46143 55.6965 5.65551 55.7742 5.81078C55.8519 5.96606 57.7541 9.92546 57.4048 11.2065C57.0918 12.3892 55.6563 12.2938 55.1661 12.2613C55.1092 12.2575 55.0651 12.2545 55.0369 12.2545C54.8816 12.2545 54.998 12.371 55.1533 12.5263C56.1236 13.3802 56.7446 14.5836 56.7446 16.1363V17.3008C56.7446 17.3203 56.7446 17.33 56.7496 17.3348C56.7545 17.3397 56.7644 17.3397 56.7837 17.3397C58.9962 17.1456 62.3735 15.787 61.4808 12.4875ZM52.9019 20.1345C52.9019 21.2603 51.388 21.8813 50.4175 21.8813C49.3695 21.8813 47.8944 21.2603 47.8944 20.1345V16.1751C47.8944 15.0494 49.3695 14.5448 50.4175 14.5448C51.388 14.5448 52.9019 15.0882 52.9019 16.1751V20.1345ZM50.4175 12.0605C48.0885 12.0993 45.3712 13.419 45.3712 16.1363V20.2898C45.3712 23.0458 48.0885 24.3657 50.4175 24.3657C52.7078 24.3268 55.425 23.0458 55.425 20.2898V16.1751C55.425 13.4579 52.7078 12.0993 50.4175 12.0605ZM32.8715 21.8813C33.842 21.8813 35.3559 21.2603 35.3559 20.1345V16.1751C35.3559 15.0882 33.842 14.5448 32.8715 14.5448C31.8235 14.5448 30.3484 15.0494 30.3484 16.1751V20.1345C30.3484 21.2603 31.8235 21.8813 32.8715 21.8813ZM27.7864 16.1363C27.7864 13.419 30.5037 12.0993 32.8327 12.0605C35.123 12.0993 37.8402 13.4579 37.8402 16.1751V20.2898C37.8402 23.0458 35.123 24.3268 32.8327 24.3657C30.5037 24.3657 27.7864 23.0458 27.7864 20.2898V16.1363ZM22.3908 12.2934C24.4094 12.2934 25.768 12.4875 27.6313 12.9922C27.6701 12.9922 27.7089 13.0698 27.7089 13.1474C27.049 13.6521 26.7385 14.3896 26.5832 15.1659C25.5739 14.8942 24.7199 14.7778 23.6718 14.7002V24.2882C23.6718 24.327 23.633 24.327 23.5942 24.327H21.1875C21.1487 24.327 21.1099 24.327 21.1099 24.2882V14.7002C20.023 14.7778 19.0913 14.9331 18.0821 15.1659C17.9656 14.3896 17.6939 13.6909 17.0728 13.1474C17.034 13.1086 17.0728 13.031 17.1505 12.9922C19.0137 12.4875 20.4111 12.2934 22.3908 12.2934ZM45.4488 12.1766C45.2547 12.1378 44.7501 12.0602 44.2843 12.099C41.994 12.1766 39.3932 13.5353 39.3932 16.1748V24.3654C39.3932 24.4042 39.432 24.4042 39.4708 24.4042H41.8775C41.9164 24.4042 41.9552 24.4042 41.9552 24.3654V16.1748C41.9552 15.282 43.0421 14.7774 43.9349 14.5833C44.2067 13.7293 44.7113 13.0695 45.4876 12.4483C45.6041 12.3319 45.5653 12.1766 45.4488 12.1766ZM14.433 16.9511C14.4718 16.9122 14.4718 16.9122 14.4718 16.8734V16.1747C14.4718 15.049 13.1908 14.5056 12.1816 14.5056C11.1335 14.5056 9.77487 15.049 9.77487 16.1747V16.9899H14.3554C14.3942 16.9899 14.433 16.9899 14.433 16.9511ZM7.21287 16.1359C7.21287 13.3799 9.81366 12.0212 12.1816 11.9824C14.5107 12.0212 16.9562 13.3799 16.9562 16.1747V18.465C16.9562 18.8143 16.6845 19.0861 16.3351 19.0861H9.77487V20.3282C9.77487 21.454 11.1335 22.1139 12.1816 22.1139C12.9579 22.1139 14.0837 21.7257 14.5107 20.9882C14.5495 20.9493 14.5495 20.9493 14.5883 20.9493C15.3093 21.327 15.7569 21.5832 16.4148 21.9596C16.5007 22.0088 16.5902 22.06 16.6845 22.1139C16.7232 22.1527 16.7621 22.2303 16.7232 22.2691C15.7917 23.783 13.8896 24.4817 12.1816 24.4817C9.81366 24.4429 7.21287 23.1231 7.21287 20.3282V16.1359Z" fill="#828282"/>
</g>
<defs>
<clipPath id="clip0_1320_3549">
<rect width="61.1653" height="35.8175" fill="white" transform="translate(0.486343 0.497803)"/>
</clipPath>
</defs>
</svg>
