<svg width="83" height="37" viewBox="0 0 83 37" fill="none" xmlns="http://www.w3.org/2000/svg">
<g clip-path="url(#clip0_1320_3553)">
<path d="M0.514526 4.97339H27.3823V31.8402H0.514526V4.97339Z" fill="#828282"/>
<path d="M33.3547 15.4324H34.9449V17.7141H36.8307V15.4324H38.4258V21.4017H36.8307V18.8423H34.9449V21.4017H33.3547V15.4324Z" fill="#828282"/>
<path d="M40.7963 19.6485C40.7963 19.2216 41.0015 19.0071 41.337 18.8286C41.7898 19.2454 42.2386 19.6738 42.6632 20.1431C42.3656 20.3683 42.1146 20.4718 41.7562 20.4718C41.2753 20.4718 40.7963 20.163 40.7963 19.6485ZM43.9912 18.1678C43.9757 18.5515 43.8735 18.9453 43.5993 19.2459C43.2642 18.9211 42.919 18.604 42.5688 18.2957C43.2049 17.9261 43.8536 17.5419 43.8536 16.7877C43.8536 15.6726 42.8275 15.3152 41.7805 15.3152C40.844 15.3152 39.7911 15.6891 39.7911 16.7439C39.7911 17.2676 40.0323 17.6771 40.5133 18.0549C39.776 18.3988 39.3383 18.8529 39.3383 19.6821C39.3383 20.9154 40.4636 21.4989 41.6011 21.4989C42.2513 21.4989 42.9472 21.3895 43.4602 20.9421C43.592 21.0792 43.6985 21.2334 43.8201 21.3963H45.5255L44.4639 20.2141C45.0183 19.6641 45.3451 18.9283 45.3815 18.1673L43.9912 18.1678ZM41.1653 16.8212C41.1653 16.5217 41.4289 16.2902 41.8005 16.2902C42.1686 16.2902 42.4672 16.4701 42.4672 16.8212C42.4672 17.2156 42.0295 17.4563 41.7397 17.628C41.4994 17.4383 41.1653 17.165 41.1653 16.8212Z" fill="#828282"/>
<path d="M47.8042 16.5491H48.2272C48.8312 16.5491 49.391 16.6512 49.391 17.2085C49.391 17.883 48.7403 17.9005 48.2272 17.9005H47.8042V16.5491ZM46.2126 21.3965H47.8042V19.0301H48.1393C48.7296 19.0301 48.9358 19.2898 49.2616 20.3169L49.6045 21.3965H51.2647L50.6855 19.7669C50.3859 19.0404 50.3509 18.5852 49.8379 18.4486V18.433C50.6052 18.2521 50.9831 17.721 50.9831 16.9235C50.9831 15.8965 50.1209 15.417 49.0559 15.417H46.2121L46.2126 21.3965Z" fill="#828282"/>
<path d="M56.1407 18.8604H56.6268C57.1759 18.8604 57.8045 18.9212 57.8045 19.5733C57.8045 20.1812 57.1938 20.2649 56.6112 20.2649H56.1407V18.8604ZM54.5466 21.3965H57.0646C58.1381 21.3965 59.398 21.0974 59.398 19.6643C59.398 18.9382 58.9839 18.5084 58.1902 18.3469V18.3285C58.8579 18.1071 59.2408 17.6856 59.2408 16.9328C59.2408 15.9038 58.4124 15.417 57.2974 15.417H54.5471L54.5466 21.3965ZM56.1407 16.5491H56.6017C57.1334 16.5491 57.6472 16.5996 57.6472 17.1492C57.6472 17.6539 57.1077 17.7804 56.5854 17.7804H56.1402L56.1407 16.5491Z" fill="#828282"/>
<path d="M60.3063 15.417H61.901V20.2143H64.3666V21.396H60.3063V15.417Z" fill="#828282"/>
<path d="M66.2099 18.408C66.2099 17.3712 66.5945 16.4964 67.5611 16.4964C68.5306 16.4964 68.9179 17.3712 68.9179 18.408C68.9179 19.3937 68.5306 20.3172 67.5611 20.3172C66.5945 20.3172 66.2099 19.3937 66.2099 18.408ZM64.566 18.408C64.566 20.306 65.6093 21.4989 67.5611 21.4989C69.5157 21.4989 70.5607 20.306 70.5607 18.408C70.5607 16.4881 69.5313 15.3152 67.5611 15.3152C65.5898 15.3152 64.566 16.4881 64.566 18.408Z" fill="#828282"/>
<path d="M76.4017 21.2575C75.9478 21.3688 75.4395 21.4986 74.6285 21.4986C73.0361 21.4986 71.1935 20.6943 71.1935 18.4326C71.1935 16.3493 72.6459 15.3145 74.6179 15.3145C75.2291 15.3145 75.8207 15.4511 76.3933 15.6227L76.2646 16.9139C75.7485 16.6308 75.2537 16.4956 74.7069 16.4956C73.5717 16.4956 72.8351 17.3175 72.8351 18.4326C72.8351 19.6065 73.6669 20.3165 74.8322 20.3165C75.3556 20.3165 75.8879 20.1803 76.3222 20.0062L76.4017 21.2575Z" fill="#828282"/>
<path d="M77.1435 15.4263H78.7242V17.8699H78.7415L80.5757 15.4263H82.4715L80.2869 18.2079L82.6411 21.3951H80.6362L78.7415 18.6791H78.7242V21.3951H77.1435V15.4263Z" fill="#828282"/>
</g>
<defs>
<clipPath id="clip0_1320_3553">
<rect width="82.2797" height="35.8225" fill="white" transform="translate(0.513 0.495117)"/>
</clipPath>
</defs>
</svg>
