<svg width="51" height="37" viewBox="0 0 51 37" fill="none" xmlns="http://www.w3.org/2000/svg">
<g clip-path="url(#clip0_1320_3481)">
<path d="M2.62788 9.79475C2.62695 9.82145 2.62695 9.85319 2.62695 9.91666V10.153C2.62695 10.2165 2.62695 10.2482 2.62788 10.2749C2.65777 11.0706 3.33385 11.709 4.17643 11.7375C4.20494 11.7384 4.23852 11.7384 4.30613 11.7384C4.37328 11.7384 4.40685 11.7384 4.4349 11.7375C5.27794 11.709 5.95449 11.0706 5.98392 10.2749C5.9853 10.2482 5.9853 10.2165 5.9853 10.153V9.91666C5.9853 9.85319 5.9853 9.82145 5.98392 9.79475C5.95449 8.99911 5.27794 8.36029 4.43537 8.33219C4.40685 8.3313 4.37328 8.3313 4.30613 8.3313C4.23852 8.3313 4.20494 8.3313 4.17643 8.33219C3.33385 8.36029 2.65777 8.99911 2.62788 9.79475ZM24.6263 15.4371V21.9592C24.6263 23.0934 25.0642 23.6043 26.4467 23.6043C27.0258 23.6043 27.5952 23.4434 27.9359 23.3219V25.9504C27.3564 26.145 26.4711 26.2425 25.7458 26.2425C22.84 26.2425 21.4625 24.7868 21.4625 22.2706V9.10993H24.6263V13.2957H27.9359V15.4376L24.6263 15.4371Z" fill="#828282"/>
<path fill-rule="evenodd" clip-rule="evenodd" d="M29.0077 19.4022C29.0077 15.5389 31.4439 12.9072 35.3427 12.9072C39.5082 12.9072 41.5728 15.9464 41.3548 20.3534H32.258C32.4227 22.6143 33.4837 23.7609 35.3629 23.7609C36.9515 23.7609 37.7946 22.9947 38.1579 21.9111H41.2486C40.6479 24.5676 38.5442 26.2431 35.3431 26.2431C31.3906 26.2431 29.0077 23.6362 29.0077 19.7233V19.4022ZM35.3188 15.4391C33.5849 15.4391 32.5486 16.3672 32.258 18.2124L38.1772 18.1637C38.007 16.4422 37.077 15.4391 35.3188 15.4391Z" fill="#828282"/>
<path d="M15.1123 12.9072C13.0777 12.9072 11.822 14.1095 11.1938 15.2919L11.048 13.2963H8.03091V25.8535H11.1943V18.7961C11.1943 16.7131 12.299 15.4382 13.9685 15.4382C15.638 15.4382 16.2562 16.5429 16.2562 18.4553V25.8535H19.4195V17.7741C19.4245 14.9709 18.2076 12.9072 15.1123 12.9072ZM46.2862 15.2919C47.0893 13.7199 48.7293 12.9072 49.961 12.9072C50.1799 12.9072 50.5253 12.9362 50.7153 12.9799V15.4382C50.4096 15.4071 50.1026 15.3909 49.7954 15.3894C47.5469 15.3894 46.2862 16.7425 46.2862 19.0398V25.8535H43.122V13.2963H46.1883L46.2862 15.2919ZM0.583893 13.2963V15.4354H2.72436V25.8535H5.88908V13.2963H0.583893Z" fill="#828282"/>
</g>
<defs>
<clipPath id="clip0_1320_3481">
<rect width="50.3752" height="35.8223" fill="white" transform="translate(0.583862 0.495361)"/>
</clipPath>
</defs>
</svg>
