<svg width="66" height="37" viewBox="0 0 66 37" fill="none" xmlns="http://www.w3.org/2000/svg">
<g clip-path="url(#clip0_1320_3544)">
<path fill-rule="evenodd" clip-rule="evenodd" d="M14.4379 7.26232L2.04892 8.17733C1.04959 8.26392 0.701805 8.91692 0.701805 9.69984V23.2815C0.701805 23.8912 0.91824 24.4129 1.44067 25.11L4.35283 28.8968C4.83122 29.5065 5.26633 29.6372 6.17984 29.5939L20.5667 28.7229C21.7833 28.6364 22.1318 28.0699 22.1318 27.1124V11.8329C22.1318 11.338 21.9363 11.1955 21.3608 10.773C21.3278 10.7492 21.2946 10.7253 21.2616 10.7014L17.3076 7.91537C16.3507 7.21978 15.9597 7.13173 14.4379 7.26232ZM6.50523 11.5828C5.33051 11.6619 5.06408 11.6798 4.39686 11.1373L2.70047 9.78788C2.52807 9.61324 2.61464 9.39533 3.049 9.35207L14.9589 8.48183C15.9589 8.39451 16.4799 8.74306 16.871 9.04757L18.9136 10.5275C19.001 10.5715 19.2181 10.832 18.9569 10.832L6.65748 11.5723L6.50523 11.5828ZM5.13572 26.9818V14.0106C5.13572 13.4441 5.30962 13.183 5.83056 13.1389L19.957 12.312C20.4361 12.2687 20.6526 12.5732 20.6526 13.1389V26.0235C20.6526 26.5899 20.5653 27.0691 19.7831 27.1124L6.26492 27.896C5.48276 27.9393 5.13572 27.6788 5.13572 26.9818ZM18.48 14.7062C18.5666 15.098 18.48 15.4898 18.0882 15.5346L17.4366 15.6637V25.2406C16.871 25.5451 16.35 25.719 15.9149 25.719C15.2193 25.719 15.0454 25.501 14.5245 24.8488L10.2637 18.1453V24.6308L11.6116 24.9361C11.6116 24.9361 11.6116 25.7197 10.5242 25.7197L7.52621 25.8936C7.43889 25.719 7.52621 25.2838 7.82998 25.1973L8.61284 24.9801V16.4048L7.52621 16.3167C7.43889 15.9249 7.65607 15.3592 8.26507 15.3152L11.4818 15.0987L15.9149 21.8888V15.8816L14.785 15.7518C14.6976 15.2719 15.0454 14.9234 15.4798 14.8808L18.48 14.7062Z" fill="#828282"/>
<path d="M31.625 23.0718V17.1684H31.7272L35.9843 23.0718H37.3247V14.3965H35.8343V20.294H35.7321L31.475 14.3965H30.1293V23.0711H31.6258L31.625 23.0718ZM41.5369 23.2047C43.5035 23.2047 44.6999 21.918 44.6999 19.7835C44.6999 17.655 43.4976 16.3623 41.5369 16.3623C39.5831 16.3623 38.3748 17.6609 38.3748 19.7835C38.3748 21.918 39.5652 23.2047 41.5369 23.2047ZM41.5369 21.9538C40.4973 21.9538 39.9025 21.1605 39.9025 19.7835C39.9025 18.4125 40.4973 17.6132 41.5369 17.6132C42.5713 17.6132 43.1662 18.4125 43.1662 19.7835C43.1662 21.1605 42.5773 21.9538 41.5369 21.9538ZM46.0619 14.8839V16.537H45.0223V17.7274H46.0619V21.3165C46.0619 22.5912 46.6635 23.1024 48.1725 23.1024C48.4606 23.1024 48.7375 23.0726 48.9539 23.03V21.8635C48.7733 21.8814 48.6591 21.8934 48.4487 21.8934C47.824 21.8934 47.5471 21.6053 47.5471 20.956V17.7274H48.9539V16.537H47.5471V14.8832H46.0619V14.8839ZM49.8473 23.0718H51.3325V16.4944H49.8473V23.0718ZM50.5869 15.4071C51.0795 15.4071 51.4765 15.0093 51.4765 14.5107C51.4765 14.0114 51.0802 13.6084 50.5869 13.6084C50.1003 13.6084 49.6973 14.0114 49.6973 14.5107C49.6973 15.0093 50.1003 15.4063 50.5869 15.4063V15.4071ZM55.4067 23.2047C57.3725 23.2047 58.5687 21.918 58.5687 19.7835C58.5687 17.655 57.3664 16.3623 55.4067 16.3623C53.452 16.3623 52.2437 17.6609 52.2437 19.7835C52.2437 21.918 53.4341 23.2047 55.4067 23.2047ZM55.4067 21.9538C54.3663 21.9538 53.7707 21.1605 53.7707 19.7835C53.7707 18.4125 54.3663 17.6132 55.4067 17.6132C56.4403 17.6132 57.0361 18.4125 57.0361 19.7835C57.0361 21.1605 56.4463 21.9538 55.4067 21.9538ZM59.4565 23.0718H60.9476V19.2424C60.9476 18.2744 61.5074 17.6609 62.3963 17.6609C63.3042 17.6609 63.7245 18.1662 63.7245 19.17V23.0718H65.2162V18.8155C65.2162 17.246 64.4164 16.3623 62.9498 16.3623C61.9692 16.3623 61.3081 16.8132 60.9952 17.5468H60.8928V16.4944H59.4565V23.0718Z" fill="#828282"/>
</g>
<defs>
<clipPath id="clip0_1320_3544">
<rect width="64.9303" height="35.8236" fill="white" transform="translate(0.701805 0.494629)"/>
</clipPath>
</defs>
</svg>
