<svg width="4462" height="96" viewBox="0 0 4462 96" fill="none" xmlns="http://www.w3.org/2000/svg">
<path d="M100 1H67.6535L1 95H32.3663L100 1Z" fill="#DA8BFF" fill-opacity="0.12" stroke="white" stroke-opacity="0.16"/>
<path d="M149 1H116.653L50 95H81.3663L149 1Z" fill="#DA8BFF" fill-opacity="0.12" stroke="white" stroke-opacity="0.16"/>
<path d="M198 1H165.653L99 95H130.366L198 1Z" fill="#DA8BFF" fill-opacity="0.12" stroke="white" stroke-opacity="0.16"/>
<path d="M247 1H214.653L148 95H179.366L247 1Z" fill="#DA8BFF" fill-opacity="0.12" stroke="white" stroke-opacity="0.16"/>
<path d="M296 1H263.653L197 95H228.366L296 1Z" fill="#DA8BFF" fill-opacity="0.12" stroke="white" stroke-opacity="0.16"/>
<path d="M345 1H312.653L246 95H277.366L345 1Z" fill="#DA8BFF" fill-opacity="0.12" stroke="white" stroke-opacity="0.16"/>
<path d="M394 1H361.653L295 95H326.366L394 1Z" fill="#DA8BFF" fill-opacity="0.12" stroke="white" stroke-opacity="0.16"/>
<path d="M443 1H410.653L344 95H375.366L443 1Z" fill="#DA8BFF" fill-opacity="0.12" stroke="white" stroke-opacity="0.16"/>
<path d="M492 1H459.653L393 95H424.366L492 1Z" fill="#DA8BFF" fill-opacity="0.12" stroke="white" stroke-opacity="0.16"/>
<path d="M541 1H508.653L442 95H473.366L541 1Z" fill="#DA8BFF" fill-opacity="0.12" stroke="white" stroke-opacity="0.16"/>
<path d="M590 1H557.653L491 95H522.366L590 1Z" fill="#DA8BFF" fill-opacity="0.12" stroke="white" stroke-opacity="0.16"/>
<path d="M639 1H606.653L540 95H571.366L639 1Z" fill="#DA8BFF" fill-opacity="0.12" stroke="white" stroke-opacity="0.16"/>
<path d="M688 1H655.653L589 95H620.366L688 1Z" fill="#DA8BFF" fill-opacity="0.12" stroke="white" stroke-opacity="0.16"/>
<path d="M737 1H704.653L638 95H669.366L737 1Z" fill="#DA8BFF" fill-opacity="0.12" stroke="white" stroke-opacity="0.16"/>
<path d="M786 1H753.653L687 95H718.366L786 1Z" fill="#DA8BFF" fill-opacity="0.12" stroke="white" stroke-opacity="0.16"/>
<path d="M835 1H802.653L736 95H767.366L835 1Z" fill="#DA8BFF" fill-opacity="0.12" stroke="white" stroke-opacity="0.16"/>
<path d="M884 1H851.653L785 95H816.366L884 1Z" fill="#DA8BFF" fill-opacity="0.12" stroke="white" stroke-opacity="0.16"/>
<path d="M933 1H900.653L834 95H865.366L933 1Z" fill="#DA8BFF" fill-opacity="0.12" stroke="white" stroke-opacity="0.16"/>
<path d="M982 1H949.653L883 95H914.366L982 1Z" fill="#DA8BFF" fill-opacity="0.12" stroke="white" stroke-opacity="0.16"/>
<path d="M1031 1H998.653L932 95H963.366L1031 1Z" fill="#DA8BFF" fill-opacity="0.12" stroke="white" stroke-opacity="0.16"/>
<path d="M1080 1H1047.65L981 95H1012.37L1080 1Z" fill="#DA8BFF" fill-opacity="0.12" stroke="white" stroke-opacity="0.16"/>
<path d="M1129 1H1096.65L1030 95H1061.37L1129 1Z" fill="#DA8BFF" fill-opacity="0.12" stroke="white" stroke-opacity="0.16"/>
<path d="M1178 1H1145.65L1079 95H1110.37L1178 1Z" fill="#DA8BFF" fill-opacity="0.12" stroke="white" stroke-opacity="0.16"/>
<path d="M1227 1H1194.65L1128 95H1159.37L1227 1Z" fill="#DA8BFF" fill-opacity="0.12" stroke="white" stroke-opacity="0.16"/>
<path d="M1276 1H1243.65L1177 95H1208.37L1276 1Z" fill="#DA8BFF" fill-opacity="0.12" stroke="white" stroke-opacity="0.16"/>
<path d="M1325 1H1292.65L1226 95H1257.37L1325 1Z" fill="#DA8BFF" fill-opacity="0.12" stroke="white" stroke-opacity="0.16"/>
<path d="M1374 1H1341.65L1275 95H1306.37L1374 1Z" fill="#DA8BFF" fill-opacity="0.12" stroke="white" stroke-opacity="0.16"/>
<path d="M1423 1H1390.65L1324 95H1355.37L1423 1Z" fill="#DA8BFF" fill-opacity="0.12" stroke="white" stroke-opacity="0.16"/>
<path d="M1472 1H1439.65L1373 95H1404.37L1472 1Z" fill="#DA8BFF" fill-opacity="0.12" stroke="white" stroke-opacity="0.16"/>
<path d="M1521 1H1488.65L1422 95H1453.37L1521 1Z" fill="#DA8BFF" fill-opacity="0.12" stroke="white" stroke-opacity="0.16"/>
<path d="M1570 1H1537.65L1471 95H1502.37L1570 1Z" fill="#DA8BFF" fill-opacity="0.12" stroke="white" stroke-opacity="0.16"/>
<path d="M1619 1H1586.65L1520 95H1551.37L1619 1Z" fill="#DA8BFF" fill-opacity="0.12" stroke="white" stroke-opacity="0.16"/>
<path d="M1668 1H1635.65L1569 95H1600.37L1668 1Z" fill="#DA8BFF" fill-opacity="0.12" stroke="white" stroke-opacity="0.16"/>
<path d="M1717 1H1684.65L1618 95H1649.37L1717 1Z" fill="#DA8BFF" fill-opacity="0.12" stroke="white" stroke-opacity="0.16"/>
<path d="M1766 1H1733.65L1667 95H1698.37L1766 1Z" fill="#DA8BFF" fill-opacity="0.12" stroke="white" stroke-opacity="0.16"/>
<path d="M1815 1H1782.65L1716 95H1747.37L1815 1Z" fill="#DA8BFF" fill-opacity="0.12" stroke="white" stroke-opacity="0.16"/>
<path d="M1864 1H1831.65L1765 95H1796.37L1864 1Z" fill="#DA8BFF" fill-opacity="0.12" stroke="white" stroke-opacity="0.16"/>
<path d="M1913 1H1880.65L1814 95H1845.37L1913 1Z" fill="#DA8BFF" fill-opacity="0.12" stroke="white" stroke-opacity="0.16"/>
<path d="M1962 1H1929.65L1863 95H1894.37L1962 1Z" fill="#DA8BFF" fill-opacity="0.12" stroke="white" stroke-opacity="0.16"/>
<path d="M2011 1H1978.65L1912 95H1943.37L2011 1Z" fill="#DA8BFF" fill-opacity="0.12" stroke="white" stroke-opacity="0.16"/>
<path d="M2060 1H2027.65L1961 95H1992.37L2060 1Z" fill="#DA8BFF" fill-opacity="0.12" stroke="white" stroke-opacity="0.16"/>
<path d="M2109 1H2076.65L2010 95H2041.37L2109 1Z" fill="#DA8BFF" fill-opacity="0.12" stroke="white" stroke-opacity="0.16"/>
<path d="M2158 1H2125.65L2059 95H2090.37L2158 1Z" fill="#DA8BFF" fill-opacity="0.12" stroke="white" stroke-opacity="0.16"/>
<path d="M2207 1H2174.65L2108 95H2139.37L2207 1Z" fill="#DA8BFF" fill-opacity="0.12" stroke="white" stroke-opacity="0.16"/>
<path d="M2256 1H2223.65L2157 95H2188.37L2256 1Z" fill="#DA8BFF" fill-opacity="0.12" stroke="white" stroke-opacity="0.16"/>
<path d="M2305 1H2272.65L2206 95H2237.37L2305 1Z" fill="#DA8BFF" fill-opacity="0.12" stroke="white" stroke-opacity="0.16"/>
<path d="M2354 1H2321.65L2255 95H2286.37L2354 1Z" fill="#DA8BFF" fill-opacity="0.12" stroke="white" stroke-opacity="0.16"/>
<path d="M2403 1H2370.65L2304 95H2335.37L2403 1Z" fill="#DA8BFF" fill-opacity="0.12" stroke="white" stroke-opacity="0.16"/>
<path d="M2452 1H2419.65L2353 95H2384.37L2452 1Z" fill="#DA8BFF" fill-opacity="0.12" stroke="white" stroke-opacity="0.16"/>
<path d="M2501 1H2468.65L2402 95H2433.37L2501 1Z" fill="#DA8BFF" fill-opacity="0.12" stroke="white" stroke-opacity="0.16"/>
<path d="M2550 1H2517.65L2451 95H2482.37L2550 1Z" fill="#DA8BFF" fill-opacity="0.12" stroke="white" stroke-opacity="0.16"/>
<path d="M2599 1H2566.65L2500 95H2531.37L2599 1Z" fill="#DA8BFF" fill-opacity="0.12" stroke="white" stroke-opacity="0.16"/>
<path d="M2648 1H2615.65L2549 95H2580.37L2648 1Z" fill="#DA8BFF" fill-opacity="0.12" stroke="white" stroke-opacity="0.16"/>
<path d="M2697 1H2664.65L2598 95H2629.37L2697 1Z" fill="#DA8BFF" fill-opacity="0.12" stroke="white" stroke-opacity="0.16"/>
<path d="M2746 1H2713.65L2647 95H2678.37L2746 1Z" fill="#DA8BFF" fill-opacity="0.12" stroke="white" stroke-opacity="0.16"/>
<path d="M2795 1H2762.65L2696 95H2727.37L2795 1Z" fill="#DA8BFF" fill-opacity="0.12" stroke="white" stroke-opacity="0.16"/>
<path d="M2844 1H2811.65L2745 95H2776.37L2844 1Z" fill="#DA8BFF" fill-opacity="0.12" stroke="white" stroke-opacity="0.16"/>
<path d="M2893 1H2860.65L2794 95H2825.37L2893 1Z" fill="#DA8BFF" fill-opacity="0.12" stroke="white" stroke-opacity="0.16"/>
<path d="M2942 1H2909.65L2843 95H2874.37L2942 1Z" fill="#DA8BFF" fill-opacity="0.12" stroke="white" stroke-opacity="0.16"/>
<path d="M2991 1H2958.65L2892 95H2923.37L2991 1Z" fill="#DA8BFF" fill-opacity="0.12" stroke="white" stroke-opacity="0.16"/>
<path d="M3040 1H3007.65L2941 95H2972.37L3040 1Z" fill="#DA8BFF" fill-opacity="0.12" stroke="white" stroke-opacity="0.16"/>
<path d="M3089 1H3056.65L2990 95H3021.37L3089 1Z" fill="#DA8BFF" fill-opacity="0.12" stroke="white" stroke-opacity="0.16"/>
<path d="M3138 1H3105.65L3039 95H3070.37L3138 1Z" fill="#DA8BFF" fill-opacity="0.12" stroke="white" stroke-opacity="0.16"/>
<path d="M3187 1H3154.65L3088 95H3119.37L3187 1Z" fill="#DA8BFF" fill-opacity="0.12" stroke="white" stroke-opacity="0.16"/>
<path d="M3236 1H3203.65L3137 95H3168.37L3236 1Z" fill="#DA8BFF" fill-opacity="0.12" stroke="white" stroke-opacity="0.16"/>
<path d="M3285 1H3252.65L3186 95H3217.37L3285 1Z" fill="#DA8BFF" fill-opacity="0.12" stroke="white" stroke-opacity="0.16"/>
<path d="M3334 1H3301.65L3235 95H3266.37L3334 1Z" fill="#DA8BFF" fill-opacity="0.12" stroke="white" stroke-opacity="0.16"/>
<path d="M3383 1H3350.65L3284 95H3315.37L3383 1Z" fill="#DA8BFF" fill-opacity="0.12" stroke="white" stroke-opacity="0.16"/>
<path d="M3432 1H3399.65L3333 95H3364.37L3432 1Z" fill="#DA8BFF" fill-opacity="0.12" stroke="white" stroke-opacity="0.16"/>
<path d="M3481 1H3448.65L3382 95H3413.37L3481 1Z" fill="#DA8BFF" fill-opacity="0.12" stroke="white" stroke-opacity="0.16"/>
<path d="M3530 1H3497.65L3431 95H3462.37L3530 1Z" fill="#DA8BFF" fill-opacity="0.12" stroke="white" stroke-opacity="0.16"/>
<path d="M3579 1H3546.65L3480 95H3511.37L3579 1Z" fill="#DA8BFF" fill-opacity="0.12" stroke="white" stroke-opacity="0.16"/>
<path d="M3628 1H3595.65L3529 95H3560.37L3628 1Z" fill="#DA8BFF" fill-opacity="0.12" stroke="white" stroke-opacity="0.16"/>
<path d="M3677 1H3644.65L3578 95H3609.37L3677 1Z" fill="#DA8BFF" fill-opacity="0.12" stroke="white" stroke-opacity="0.16"/>
<path d="M3726 1H3693.65L3627 95H3658.37L3726 1Z" fill="#DA8BFF" fill-opacity="0.12" stroke="white" stroke-opacity="0.16"/>
<path d="M3775 1H3742.65L3676 95H3707.37L3775 1Z" fill="#DA8BFF" fill-opacity="0.12" stroke="white" stroke-opacity="0.16"/>
<path d="M3824 1H3791.65L3725 95H3756.37L3824 1Z" fill="#DA8BFF" fill-opacity="0.12" stroke="white" stroke-opacity="0.16"/>
<path d="M3873 1H3840.65L3774 95H3805.37L3873 1Z" fill="#DA8BFF" fill-opacity="0.12" stroke="white" stroke-opacity="0.16"/>
<path d="M3922 1H3889.65L3823 95H3854.37L3922 1Z" fill="#DA8BFF" fill-opacity="0.12" stroke="white" stroke-opacity="0.16"/>
<path d="M3971 1H3938.65L3872 95H3903.37L3971 1Z" fill="#DA8BFF" fill-opacity="0.12" stroke="white" stroke-opacity="0.16"/>
<path d="M4020 1H3987.65L3921 95H3952.37L4020 1Z" fill="#DA8BFF" fill-opacity="0.12" stroke="white" stroke-opacity="0.16"/>
<path d="M4069 1H4036.65L3970 95H4001.37L4069 1Z" fill="#DA8BFF" fill-opacity="0.12" stroke="white" stroke-opacity="0.16"/>
<path d="M4118 1H4085.65L4019 95H4050.37L4118 1Z" fill="#DA8BFF" fill-opacity="0.12" stroke="white" stroke-opacity="0.16"/>
<path d="M4167 1H4134.65L4068 95H4099.37L4167 1Z" fill="#DA8BFF" fill-opacity="0.12" stroke="white" stroke-opacity="0.16"/>
<path d="M4216 1H4183.65L4117 95H4148.37L4216 1Z" fill="#DA8BFF" fill-opacity="0.12" stroke="white" stroke-opacity="0.16"/>
<path d="M4265 1H4232.65L4166 95H4197.37L4265 1Z" fill="#DA8BFF" fill-opacity="0.12" stroke="white" stroke-opacity="0.16"/>
<path d="M4314 1H4281.65L4215 95H4246.37L4314 1Z" fill="#DA8BFF" fill-opacity="0.12" stroke="white" stroke-opacity="0.16"/>
<path d="M4363 1H4330.65L4264 95H4295.37L4363 1Z" fill="#DA8BFF" fill-opacity="0.12" stroke="white" stroke-opacity="0.16"/>
<path d="M4412 1H4379.65L4313 95H4344.37L4412 1Z" fill="#DA8BFF" fill-opacity="0.12" stroke="white" stroke-opacity="0.16"/>
<path d="M4461 1H4428.65L4362 95H4393.37L4461 1Z" fill="#DA8BFF" fill-opacity="0.12" stroke="white" stroke-opacity="0.16"/>
</svg>
